<?xml version="1.0" encoding="UTF-8"?>
<svg version="1.1" xmlns="http://www.w3.org/2000/svg" width="48" height="48">
<path d="M0 0 C2.60307054 0.36076671 3.72523915 0.67487867 5.44921875 2.71484375 C8.6650769 8.48715697 9.84847494 13.40177218 10 20 C10.95261719 19.94199219 11.90523437 19.88398438 12.88671875 19.82421875 C23.15047085 19.45501903 23.15047085 19.45501903 27.3125 22.125 C29.17635919 25.3004638 29.92331723 27.31922695 30 31 C29.25 33.8125 29.25 33.8125 28 36 C27.01 36.33 26.02 36.66 25 37 C24.814375 38.3303125 24.814375 38.3303125 24.625 39.6875 C24.05587264 42.70387502 23.23385564 45.20326054 22 48 C20.35 48 18.7 48 17 48 C17 47.34 17 46.68 17 46 C17.66 46 18.32 46 19 46 C19 45.34 19 44.68 19 44 C18.01 44 17.02 44 16 44 C15.67 42.02 15.34 40.04 15 38 C12.69 38 10.38 38 8 38 C7.87625 38.721875 7.7525 39.44375 7.625 40.1875 C7.0095069 42.95721894 6.11555626 45.3970354 5 48 C3.35 48 1.7 48 0 48 C0 47.34 0 46.68 0 46 C0.66 46 1.32 46 2 46 C2 45.34 2 44.68 2 44 C1.01 43.67 0.02 43.34 -1 43 C-4.94678608 34.60482961 -5.53779698 26.12760987 -5 17 C-6.98 17 -8.96 17 -11 17 C-11.75 15.25 -11.75 15.25 -12 13 C-10.71034824 11.62437146 -9.37310707 10.29233607 -8 9 C-7.2127322 6.8618034 -7.2127322 6.8618034 -7 5 C-3.535 4.505 -3.535 4.505 0 4 C0 2.68 0 1.36 0 0 Z " fill="#DEDEDE" transform="translate(15,0)"/>
<path d="M0 0 C2.60307054 0.36076671 3.72523915 0.67487867 5.44921875 2.71484375 C8.6650769 8.48715697 9.84847494 13.40177218 10 20 C10.95261719 19.94199219 11.90523437 19.88398438 12.88671875 19.82421875 C23.15047085 19.45501903 23.15047085 19.45501903 27.3125 22.125 C29.17635919 25.3004638 29.92331723 27.31922695 30 31 C29.25 33.8125 29.25 33.8125 28 36 C27.01 36.33 26.02 36.66 25 37 C24.814375 38.3303125 24.814375 38.3303125 24.625 39.6875 C24.05587264 42.70387502 23.23385564 45.20326054 22 48 C20.35 48 18.7 48 17 48 C17 47.34 17 46.68 17 46 C17.66 46 18.32 46 19 46 C19 45.34 19 44.68 19 44 C18.01 44 17.02 44 16 44 C15.67 42.02 15.34 40.04 15 38 C12.69 38 10.38 38 8 38 C7.87625 38.721875 7.7525 39.44375 7.625 40.1875 C7.0095069 42.95721894 6.11555626 45.3970354 5 48 C3.35 48 1.7 48 0 48 C0 47.34 0 46.68 0 46 C0.66 46 1.32 46 2 46 C2 45.34 2 44.68 2 44 C1.01 43.67 0.02 43.34 -1 43 C-4.94678608 34.60482961 -5.53779698 26.12760987 -5 17 C-6.98 17 -8.96 17 -11 17 C-11.75 15.25 -11.75 15.25 -12 13 C-10.71034824 11.62437146 -9.37310707 10.29233607 -8 9 C-7.2127322 6.8618034 -7.2127322 6.8618034 -7 5 C-3.535 4.505 -3.535 4.505 0 4 C0 2.68 0 1.36 0 0 Z M2 3 C2 3.99 2 4.98 2 6 C0.02 6 -1.96 6 -4 6 C-4 7.32 -4 8.64 -4 10 C-3.01 10 -2.02 10 -1 10 C-1.32484375 10.85335938 -1.6496875 11.70671875 -1.984375 12.5859375 C-3.03443823 16.11576543 -3.26719378 18.95412826 -3.25 22.625 C-3.25515625 23.73101563 -3.2603125 24.83703125 -3.265625 25.9765625 C-3.00388104 28.95582462 -2.44243114 30.44636265 -1 33 C-0.21769702 35.64630885 0.37241612 38.31035481 1 41 C2.32 41.33 3.64 41.66 5 42 C5.495 39.03 5.495 39.03 6 36 C9.63 36 13.26 36 17 36 C17 37.65 17 39.3 17 41 C18.32 41.33 19.64 41.66 21 42 C23.20914 38.68629 23.22481553 37.6553979 23.125 33.8125 C23.10695313 32.91144531 23.08890625 32.01039062 23.0703125 31.08203125 C23.04710938 30.39496094 23.02390625 29.70789063 23 29 C23.66 29 24.32 29 25 29 C25 30.65 25 32.3 25 34 C25.66 33.67 26.32 33.34 27 33 C27.41771804 29.66799815 27.41771804 29.66799815 27 26 C24.11916756 22.85324456 22.50770908 22.05261234 18.23046875 21.609375 C16.88225415 21.63568163 15.53430482 21.68298196 14.1875 21.75 C13.49462891 21.76804687 12.80175781 21.78609375 12.08789062 21.8046875 C10.39132336 21.85148936 8.69547524 21.92322376 7 22 C7.06960937 20.948125 7.06960937 20.948125 7.140625 19.875 C7.40212848 13.00119422 6.55818602 8.89324559 3 3 C2.67 3 2.34 3 2 3 Z " fill="#1D1D1D" transform="translate(15,0)"/>
<path d="M0 0 C3.67506123 4.67735066 5.26889435 7.70643713 5.125 13.75 C5.10695313 14.73484375 5.08890625 15.7196875 5.0703125 16.734375 C5.03550781 17.85585938 5.03550781 17.85585938 5 19 C6.53720703 18.93039063 6.53720703 18.93039063 8.10546875 18.859375 C9.46611656 18.82183989 10.82679605 18.78544159 12.1875 18.75 C12.86103516 18.71648438 13.53457031 18.68296875 14.22851562 18.6484375 C17.82799314 18.57820379 19.85952921 18.91571753 22.96875 20.78125 C25 23 25 23 25.3125 26.75 C25.209375 27.8225 25.10625 28.895 25 30 C24.34 30.33 23.68 30.66 23 31 C23 29.35 23 27.7 23 26 C21.97519531 25.96261719 20.95039062 25.92523437 19.89453125 25.88671875 C18.53381938 25.82102921 17.17314389 25.75458291 15.8125 25.6875 C15.13896484 25.66494141 14.46542969 25.64238281 13.77148438 25.61914062 C9.41231515 25.38523398 6.43778005 24.74119422 3 22 C1.875 18.75 1.875 18.75 1 15 C-0.60068285 9.86576996 -0.60068285 9.86576996 -4.6875 6.5625 C-5.8321875 6.2840625 -5.8321875 6.2840625 -7 6 C-6.67 5.01 -6.34 4.02 -6 3 C-4.02 3 -2.04 3 0 3 C0 2.01 0 1.02 0 0 Z " fill="#F3F3F3" transform="translate(17,3)"/>
<path d="M0 0 C2.60307054 0.36076671 3.72523915 0.67487867 5.44921875 2.71484375 C8.6650769 8.48715697 9.84847494 13.40177218 10 20 C10.95261719 19.94199219 11.90523437 19.88398438 12.88671875 19.82421875 C23.15047085 19.45501903 23.15047085 19.45501903 27.3125 22.125 C29.11065664 25.18852613 29.75383738 27.47166905 30 31 C29.01 31.33 28.02 31.66 27 32 C26.731875 30.88625 26.46375 29.7725 26.1875 28.625 C25.34190981 24.78159049 25.34190981 24.78159049 22 23 C19.41114829 22.70008931 16.90850918 22.49134775 14.3125 22.375 C13.61060547 22.33632813 12.90871094 22.29765625 12.18554688 22.2578125 C10.45745345 22.1637666 8.72876325 22.0808032 7 22 C6.96261719 21.26394531 6.92523437 20.52789063 6.88671875 19.76953125 C6.47015527 12.39587342 6.47015527 12.39587342 3 6 C0.69 6.33 -1.62 6.66 -4 7 C-4 7.66 -4 8.32 -4 9 C-3.01 9.33 -2.02 9.66 -1 10 C-2 13 -2 13 -4 15 C-7.125 15.125 -7.125 15.125 -10 15 C-10.33 13.68 -10.66 12.36 -11 11 C-10.01 10.34 -9.02 9.68 -8 9 C-7.27617533 6.94074861 -7.27617533 6.94074861 -7 5 C-3.535 4.505 -3.535 4.505 0 4 C0 2.68 0 1.36 0 0 Z " fill="#1D1D1D" transform="translate(15,0)"/>
<path d="M0 0 C0.66 0 1.32 0 2 0 C2.103125 0.639375 2.20625 1.27875 2.3125 1.9375 C2.539375 2.618125 2.76625 3.29875 3 4 C3.99 4.33 4.98 4.66 6 5 C5 8 5 8 3 10 C-0.125 10.125 -0.125 10.125 -3 10 C-3.33 8.68 -3.66 7.36 -4 6 C-3.01 5.34 -2.02 4.68 -1 4 C-0.27617533 1.94074861 -0.27617533 1.94074861 0 0 Z " fill="#5F5F5F" transform="translate(8,5)"/>
</svg>
